<svg width="128" height="58" viewBox="0 0 128 58" fill="none" xmlns="http://www.w3.org/2000/svg">
<path d="M10.1882 11.0909V46H2.80753V11.0909H10.1882Z" fill="white"/>
<path d="M11.0732 11.0909H20.1754L29.7891 34.5455H30.1982L39.8118 11.0909H48.9141V46H41.755V23.2784H41.4652L32.4311 45.8295H27.5561L18.522 23.1932H18.2322V46H11.0732V11.0909Z" fill="white"/>
<path d="M62.4482 46H50.0732V11.0909H62.5504C66.0618 11.0909 69.0845 11.7898 71.6186 13.1875C74.1527 14.5739 76.1016 16.5682 77.4652 19.1705C78.8402 21.7727 79.5277 24.8864 79.5277 28.5114C79.5277 32.1477 78.8402 35.2727 77.4652 37.8864C76.1016 40.5 74.1413 42.5057 71.5845 43.9034C69.0391 45.3011 65.9936 46 62.4482 46ZM57.4538 39.6761H62.1413C64.3232 39.6761 66.1584 39.2898 67.647 38.517C69.147 37.733 70.272 36.5227 71.022 34.8864C71.7834 33.2386 72.1641 31.1136 72.1641 28.5114C72.1641 25.9318 71.7834 23.8239 71.022 22.1875C70.272 20.5511 69.1527 19.3466 67.6641 18.5739C66.1754 17.8011 64.3402 17.4148 62.1584 17.4148H57.4538V39.6761Z" fill="white"/>
<path d="M80.098 46H72.1889L84.2401 11.0909H93.7514L105.786 46H97.8764L89.1321 19.0682H88.8594L80.098 46ZM79.6037 32.2784H98.2855V38.0398H79.6037V32.2784Z" fill="white"/>
<path d="M98.1513 46V41.6193L115.572 17.1761H98.1172V11.0909H124.844V15.4716L107.407 39.9148H124.879V46H98.1513Z" fill="white"/>
</svg>
